<svg id="visual" viewBox="0 0 900 600" width="900" height="600" xmlns="http://www.w3.org/2000/svg" xmlns:xlink="http://www.w3.org/1999/xlink" version="1.1"><rect x="0" y="0" width="900" height="600" fill="#642eb7"></rect><path d="M250 0L248.5 8.3C247 16.7 244 33.3 231.8 50C219.7 66.7 198.3 83.3 181.5 100C164.7 116.7 152.3 133.3 149.7 150C147 166.7 154 183.3 171.8 200C189.7 216.7 218.3 233.3 240.2 250C262 266.7 277 283.3 272.2 300C267.3 316.7 242.7 333.3 227.8 350C213 366.7 208 383.3 216.5 400C225 416.7 247 433.3 248.5 450C250 466.7 231 483.3 222.3 500C213.7 516.7 215.3 533.3 231.7 550C248 566.7 279 583.3 294.5 591.7L310 600L0 600L0 591.7C0 583.3 0 566.7 0 550C0 533.3 0 516.7 0 500C0 483.3 0 466.7 0 450C0 433.3 0 416.7 0 400C0 383.3 0 366.7 0 350C0 333.3 0 316.7 0 300C0 283.3 0 266.7 0 250C0 233.3 0 216.7 0 200C0 183.3 0 166.7 0 150C0 133.3 0 116.7 0 100C0 83.3 0 66.7 0 50C0 33.3 0 16.7 0 8.3L0 0Z" fill="#C62368" strokeLinecap="round" strokeLinejoin="miter"></path></svg>